
<svg xmlns="http://www.w3.org/2000/svg" class="w-32" viewBox="0 0 97 42" version="1.1" xml:space="preserve" style="fill-rule:evenodd;clip-rule:evenodd;stroke-linejoin:round;stroke-miterlimit:2;"> <g transform="matrix(1,0,0,1,-115.776,59.3582)"> <g transform="matrix(1,0,0,1,89.0238,-116.356)"> <g transform="matrix(0.96714,0,0,0.310049,3.98644,46.6125)" style="fill: white;fill-rule:nonzero;"> <path d="M31.041,117.958L32.869,117.958C34.437,117.958 35.781,116.213 36.9,112.722C38.012,109.255 38.567,105.075 38.567,100.183C38.567,95.267 38.012,91.075 36.9,87.608C35.781,84.117 34.437,82.371 32.869,82.371L31.041,82.371L31.041,117.958ZM28.575,125.653L28.575,74.677L32.869,74.677C35.122,74.677 37.048,77.17 38.647,82.157C40.238,87.145 41.034,93.153 41.034,100.183C41.034,107.188 40.238,113.185 38.647,118.172C37.048,123.159 35.122,125.653 32.869,125.653L28.575,125.653Z"></path> <path d="M56.912,74.677L51.088,116.284L45.332,74.677L42.74,74.677L42.74,125.653L45.218,125.653L45.218,93.485L49.683,125.653L52.481,125.653L57.026,93.272L57.026,125.653L59.505,125.653L59.505,74.677L56.912,74.677Z"></path> <path d="M71.055,74.498L63.814,110.193L63.757,110.193L63.757,110.513L60.685,125.653L61.416,125.653L64.157,112.116L71.591,112.116L71.591,125.653L72.197,125.653L72.197,74.498L71.055,74.498ZM71.591,75.46L71.591,110.193L64.545,110.193L71.591,75.46Z"></path> <path d="M81.326,126.615C79.803,126.615 78.505,124.929 77.431,121.556C76.35,118.208 75.81,114.159 75.81,109.409L75.81,74.463L76.426,74.463L76.426,109.409C76.426,113.612 76.906,117.21 77.865,120.203C78.825,123.195 79.978,124.691 81.326,124.691C82.681,124.691 83.834,123.195 84.786,120.203C85.745,117.21 86.225,113.612 86.225,109.409L86.225,74.463L86.842,74.463L86.842,109.409C86.842,114.159 86.305,118.208 85.231,121.556C84.15,124.929 82.848,126.615 81.326,126.615Z"></path> <path d="M90.82,76.422L95.97,76.422C96.975,76.422 97.836,77.538 98.551,79.771C99.267,82.003 99.625,84.699 99.625,87.857C99.625,91.016 99.267,93.699 98.551,95.908C97.836,98.14 96.975,99.256 95.97,99.256L90.82,99.256L90.82,76.422ZM100.538,125.653L96.45,101.109C97.524,100.729 98.422,99.28 99.145,96.763C99.876,94.222 100.242,91.253 100.242,87.857C100.242,84.176 99.823,81.029 98.985,78.417C98.148,75.805 97.143,74.498 95.97,74.498L90.203,74.498L90.203,125.653L90.82,125.653L90.82,101.18L95.776,101.18L99.853,125.653L100.538,125.653Z"></path> <path d="M103.295,74.498L103.295,125.653L111.677,125.653L111.677,123.729L103.912,123.729L103.912,100.931L110.159,100.931L110.159,99.043L103.912,99.043L103.912,76.422L111.677,76.422L111.677,74.498L103.295,74.498Z"></path> <path d="M114.537,74.498L114.537,125.653L122.919,125.653L122.919,123.729L115.153,123.729L115.153,74.498L114.537,74.498Z"></path> </g> <g transform="matrix(1,0,0,1,55.8223,66.0589)"> <path d="M0,23.451L-11.068,29.841L-26.757,20.783L-26.757,2.668L-11.068,-6.39L0,0L4.625,0L-11.068,-9.061L-29.07,1.332L-29.07,22.119L-11.068,32.512L4.625,23.451L0,23.451Z" style="fill: #F9BF14;"></path> </g> </g> </g> </svg>
